# Blender v2.75 (sub 0) OBJ File: 'nexus.blend'
# www.blender.org
mtllib BlockNexusPillar.mtl
o Pillars_Cube.001
v -0.369100 -0.000001 1.369100
v 0.982900 -0.000001 1.369100
v -0.369100 -0.000001 0.017100
v 0.982900 -0.000001 0.017100
v -0.159484 0.958608 1.143177
v 0.905684 1.143573 1.175791
v -0.159484 1.146426 0.078009
v 0.905684 1.331391 0.110623
v -0.297239 2.213115 0.321009
v -0.297239 2.044078 1.279661
v 0.661413 2.210546 1.309013
v 0.661413 2.379583 0.350361
v -0.462222 3.189056 0.678855
v -0.427222 2.864392 1.385837
v 0.279099 3.174298 1.493187
v 0.244099 3.498962 0.786205
v -0.848811 4.334685 1.266471
v -0.735178 4.005263 1.685675
v -0.306801 4.316846 1.814406
v -0.420433 4.646268 1.395202
v -1.233872 4.831078 1.934785
v -1.136361 4.637355 2.099873
v -0.969792 4.819598 2.215341
v -1.067303 5.013321 2.050253
v -1.578294 4.958787 2.423084
v -1.539290 4.881298 2.489120
v -1.472662 4.954195 2.535306
v -1.511667 5.031684 2.469271
vt -0.000000 1.000000
vt -0.000000 0.828125
vt 0.171875 0.828125
vt 0.171875 1.000000
vt 0.125000 0.312500
vt 0.250000 0.312500
vt 0.250000 0.437500
vt 0.125000 0.437500
vt 0.125000 0.187500
vt 0.250000 0.187500
vt -0.000000 0.187500
vt -0.000000 0.312500
vt 0.125000 0.562500
vt 0.250000 0.562500
vt -0.000000 0.437500
vt 0.109375 0.562500
vt 0.218750 0.562500
vt 0.218750 0.671875
vt 0.109375 0.671875
vt -0.000000 0.562500
vt 0.093750 0.671875
vt 0.187500 0.671875
vt 0.187500 0.765625
vt 0.093750 0.765625
vt -0.000000 0.671875
vt 0.062500 0.765625
vt 0.125000 0.765625
vt 0.125000 0.828125
vt 0.062500 0.828125
vt -0.000000 0.765625
vt 0.125000 0.796875
vt 0.140625 0.796875
vt 0.140625 0.812500
vt 0.125000 0.812500
vn 0.000000 -1.000000 0.000000
vn 0.975100 0.218400 0.038500
vn 0.998000 0.062500 0.004900
vn -0.980400 0.196400 0.015300
vn 0.008700 0.061700 -0.998100
vn -0.028300 0.197200 0.980000
vn -0.022800 0.348600 -0.937000
vn -0.992100 -0.123200 -0.021700
vn -0.008500 0.221100 -0.975200
vn -0.008500 -0.125800 0.992000
vn 0.891600 0.432600 0.133600
vn -0.032300 -0.169600 0.985000
vn 0.938300 0.336400 0.080000
vn -0.987500 -0.155600 -0.025400
vn 0.691400 0.644200 0.327000
vn -0.959900 -0.278100 -0.034800
vn -0.055700 0.441800 -0.895400
vn -0.046700 -0.279100 0.959100
vn 0.510200 0.692000 0.510700
vn -0.865500 -0.485800 -0.122200
vn -0.290400 0.681900 -0.671400
vn 0.088400 -0.525100 0.846400
vn -0.706100 0.218600 0.673600
vn -0.700900 -0.633000 -0.328800
vn -0.449800 0.733700 -0.509200
vn 0.259100 -0.674700 0.691100
usemtl MatPillar
s off
f 1/1/1 3/2/1 4/3/1 2/4/1
f 6/5/2 8/6/2 12/7/2 11/8/2
f 2/9/3 4/10/3 8/6/3 6/5/3
f 3/9/4 1/11/4 5/12/4 7/5/4
f 4/10/5 3/9/5 7/5/5 8/6/5
f 1/11/6 2/9/6 6/5/6 5/12/6
f 12/7/7 9/8/7 13/13/7 16/14/7
f 7/5/8 5/12/8 10/15/8 9/8/8
f 8/6/9 7/5/9 9/8/9 12/7/9
f 5/12/10 6/5/10 11/8/10 10/15/10
f 15/16/11 16/17/11 20/18/11 19/19/11
f 10/15/12 11/8/12 15/13/12 14/20/12
f 11/8/13 12/7/13 16/14/13 15/13/13
f 9/8/14 10/15/14 14/20/14 13/13/14
f 19/21/15 20/22/15 24/23/15 23/24/15
f 13/16/16 14/20/16 18/25/16 17/19/16
f 16/17/17 13/16/17 17/19/17 20/18/17
f 14/20/18 15/16/18 19/19/18 18/25/18
f 23/26/19 24/27/19 28/28/19 27/29/19
f 17/21/20 18/25/20 22/30/20 21/24/20
f 20/22/21 17/21/21 21/24/21 24/23/21
f 18/25/22 19/21/22 23/24/22 22/30/22
f 26/31/23 27/32/23 28/33/23 25/34/23
f 21/26/24 22/30/24 26/2/24 25/29/24
f 24/27/25 21/26/25 25/29/25 28/28/25
f 22/30/26 23/26/26 27/29/26 26/2/26
