# Blender v2.75 (sub 0) OBJ File: 'nexus.blend'
# www.blender.org
mtllib Nexus.mtl
o Crystal_Plane.001
v 0.000000 0.000000 0.707107
v 0.707107 0.000000 -0.000000
v -0.707107 0.000000 0.000000
v -0.000000 0.000000 -0.707107
v 0.000000 1.000000 0.000000
v 0.000000 -1.000000 0.000000
vn 0.632500 -0.447200 0.632500
vn 0.632500 0.447200 0.632500
vn 0.632500 0.447200 -0.632500
vn -0.632500 0.447200 0.632500
vn -0.632500 0.447200 -0.632500
vn -0.632500 -0.447200 -0.632500
vn -0.632500 -0.447200 0.632500
vn 0.632500 -0.447200 -0.632500
usemtl None
s off
f 2//1 1//1 6//1
f 1//2 2//2 5//2
f 2//3 4//3 5//3
f 3//4 1//4 5//4
f 4//5 3//5 5//5
f 3//6 4//6 6//6
f 1//7 3//7 6//7
f 4//8 2//8 6//8
o Pillars_Cube.001
v 2.030900 -5.000000 -2.030900
v 3.382900 -5.000000 -2.030900
v 2.030900 -5.000000 -3.382900
v 3.382900 -5.000000 -3.382900
v 2.240516 -4.041392 -2.256823
v 3.305684 -3.856427 -2.224209
v 2.240516 -3.853574 -3.321991
v 3.305684 -3.668609 -3.289377
v 2.102761 -2.786885 -3.078991
v 2.102761 -2.955922 -2.120339
v 3.061413 -2.789454 -2.090987
v 3.061413 -2.620417 -3.049639
v 1.937778 -1.810944 -2.721145
v 1.972778 -2.135608 -2.014163
v 2.679099 -1.825702 -1.906813
v 2.644099 -1.501038 -2.613795
v 1.551189 -0.665315 -2.133529
v 1.664822 -0.994737 -1.714325
v 2.093199 -0.683154 -1.585594
v 1.979567 -0.353732 -2.004798
v 1.166128 -0.168922 -1.465215
v 1.263639 -0.362645 -1.300127
v 1.430207 -0.180402 -1.184659
v 1.332697 0.013321 -1.349747
v 0.821706 -0.041213 -0.976916
v 0.860710 -0.118702 -0.910881
v 0.927338 -0.045805 -0.864693
v 0.888333 0.031684 -0.930729
v -2.030900 -5.000000 -2.030900
v -3.382900 -5.000000 -2.030900
v -2.030900 -5.000000 -3.382900
v -3.382900 -5.000000 -3.382900
v -2.240516 -4.041392 -2.256823
v -3.305684 -3.856427 -2.224209
v -2.240516 -3.853574 -3.321991
v -3.305684 -3.668609 -3.289377
v -2.102761 -2.786885 -3.078991
v -2.102761 -2.955922 -2.120339
v -3.061413 -2.789454 -2.090987
v -3.061413 -2.620417 -3.049639
v -1.937778 -1.810944 -2.721145
v -1.972778 -2.135608 -2.014163
v -2.679099 -1.825702 -1.906813
v -2.644099 -1.501038 -2.613795
v -1.551189 -0.665315 -2.133529
v -1.664822 -0.994737 -1.714325
v -2.093199 -0.683154 -1.585594
v -1.979567 -0.353732 -2.004798
v -1.166128 -0.168922 -1.465215
v -1.263639 -0.362645 -1.300127
v -1.430207 -0.180402 -1.184659
v -1.332697 0.013321 -1.349747
v -0.821706 -0.041213 -0.976916
v -0.860710 -0.118702 -0.910881
v -0.927338 -0.045805 -0.864693
v -0.888333 0.031684 -0.930729
v 2.030900 -5.000000 2.030900
v 3.382900 -5.000000 2.030900
v 2.030900 -5.000000 3.382900
v 3.382900 -5.000000 3.382900
v 2.240516 -4.041392 2.256823
v 3.305684 -3.856427 2.224209
v 2.240516 -3.853574 3.321991
v 3.305684 -3.668609 3.289377
v 2.102761 -2.786885 3.078991
v 2.102761 -2.955922 2.120339
v 3.061413 -2.789454 2.090987
v 3.061413 -2.620417 3.049639
v 1.937778 -1.810944 2.721145
v 1.972778 -2.135608 2.014163
v 2.679099 -1.825702 1.906813
v 2.644099 -1.501038 2.613795
v 1.551189 -0.665315 2.133529
v 1.664822 -0.994737 1.714325
v 2.093199 -0.683154 1.585594
v 1.979567 -0.353732 2.004798
v 1.166128 -0.168922 1.465215
v 1.263639 -0.362645 1.300127
v 1.430207 -0.180402 1.184659
v 1.332697 0.013321 1.349747
v 0.821706 -0.041213 0.976916
v 0.860710 -0.118702 0.910881
v 0.927338 -0.045805 0.864693
v 0.888333 0.031684 0.930729
v -2.030900 -5.000000 2.030900
v -3.382900 -5.000000 2.030900
v -2.030900 -5.000000 3.382900
v -3.382900 -5.000000 3.382900
v -2.240516 -4.041392 2.256823
v -3.305684 -3.856427 2.224209
v -2.240516 -3.853574 3.321991
v -3.305684 -3.668609 3.289377
v -2.102761 -2.786885 3.078991
v -2.102761 -2.955922 2.120339
v -3.061413 -2.789454 2.090987
v -3.061413 -2.620417 3.049639
v -1.937778 -1.810944 2.721145
v -1.972778 -2.135608 2.014163
v -2.679099 -1.825702 1.906813
v -2.644099 -1.501038 2.613795
v -1.551189 -0.665315 2.133529
v -1.664822 -0.994737 1.714325
v -2.093199 -0.683154 1.585594
v -1.979567 -0.353732 2.004798
v -1.166128 -0.168922 1.465215
v -1.263639 -0.362645 1.300127
v -1.430207 -0.180402 1.184659
v -1.332697 0.013321 1.349747
v -0.821706 -0.041213 0.976916
v -0.860710 -0.118702 0.910881
v -0.927338 -0.045805 0.864693
v -0.888333 0.031684 0.930729
vt 0.000000 0.000000
vn 0.000000 -1.000000 0.000000
vn 0.975100 0.218400 0.038500
vn 0.998000 0.062500 0.004900
vn -0.980400 0.196400 0.015300
vn 0.008700 0.061700 -0.998100
vn -0.028300 0.197200 0.980000
vn -0.022800 0.348600 -0.937000
vn -0.992100 -0.123200 -0.021700
vn -0.008500 0.221100 -0.975200
vn -0.008500 -0.125800 0.992000
vn 0.891600 0.432600 0.133600
vn -0.032300 -0.169600 0.985000
vn 0.938300 0.336400 0.080000
vn -0.987500 -0.155600 -0.025400
vn 0.691400 0.644200 0.327000
vn -0.959900 -0.278100 -0.034800
vn -0.055700 0.441800 -0.895400
vn -0.046700 -0.279100 0.959100
vn 0.510200 0.692000 0.510700
vn -0.865500 -0.485800 -0.122200
vn -0.290400 0.681900 -0.671400
vn 0.088400 -0.525100 0.846400
vn -0.706100 0.218600 0.673600
vn -0.700900 -0.633000 -0.328800
vn -0.449800 0.733800 -0.509200
vn 0.259100 -0.674700 0.691100
vn -0.975100 0.218400 0.038500
vn -0.998000 0.062500 0.004900
vn 0.980400 0.196400 0.015300
vn -0.008700 0.061700 -0.998100
vn 0.028300 0.197200 0.980000
vn 0.022800 0.348600 -0.937000
vn 0.992100 -0.123200 -0.021700
vn 0.008500 0.221100 -0.975200
vn 0.008500 -0.125800 0.992000
vn -0.891600 0.432600 0.133600
vn 0.032300 -0.169600 0.985000
vn -0.938300 0.336400 0.080000
vn 0.987500 -0.155600 -0.025400
vn -0.691400 0.644200 0.327000
vn 0.959900 -0.278100 -0.034800
vn 0.055700 0.441800 -0.895400
vn 0.046700 -0.279100 0.959100
vn -0.510200 0.692000 0.510700
vn 0.865500 -0.485800 -0.122200
vn 0.290400 0.681900 -0.671400
vn -0.088400 -0.525100 0.846400
vn 0.706100 0.218600 0.673600
vn 0.700900 -0.633000 -0.328800
vn 0.449800 0.733800 -0.509200
vn -0.259100 -0.674700 0.691100
vn 0.975100 0.218400 -0.038500
vn 0.998000 0.062500 -0.004900
vn -0.980400 0.196400 -0.015300
vn 0.008700 0.061700 0.998100
vn -0.028300 0.197200 -0.980000
vn -0.022800 0.348600 0.937000
vn -0.992100 -0.123200 0.021700
vn -0.008500 0.221100 0.975200
vn -0.008500 -0.125800 -0.992000
vn 0.891600 0.432600 -0.133600
vn -0.032300 -0.169600 -0.985000
vn 0.938300 0.336400 -0.080000
vn -0.987500 -0.155600 0.025400
vn 0.691400 0.644200 -0.327000
vn -0.959900 -0.278100 0.034800
vn -0.055700 0.441800 0.895400
vn -0.046700 -0.279100 -0.959100
vn 0.510200 0.692000 -0.510700
vn -0.865500 -0.485800 0.122200
vn -0.290400 0.681900 0.671400
vn 0.088400 -0.525100 -0.846400
vn -0.706100 0.218600 -0.673600
vn -0.700900 -0.633000 0.328800
vn -0.449800 0.733800 0.509200
vn 0.259100 -0.674700 -0.691100
vn -0.975100 0.218400 -0.038500
vn -0.998000 0.062500 -0.004900
vn 0.980400 0.196400 -0.015300
vn -0.008700 0.061700 0.998100
vn 0.028300 0.197200 -0.980000
vn 0.022800 0.348600 0.937000
vn 0.992100 -0.123200 0.021700
vn 0.008500 0.221100 0.975200
vn 0.008500 -0.125800 -0.992000
vn -0.891600 0.432600 -0.133600
vn 0.032300 -0.169600 -0.985000
vn -0.938300 0.336400 -0.080000
vn 0.987500 -0.155600 0.025400
vn -0.691400 0.644200 -0.327000
vn 0.959900 -0.278100 0.034800
vn 0.055700 0.441800 0.895400
vn 0.046700 -0.279100 -0.959100
vn -0.510200 0.692000 -0.510700
vn 0.865500 -0.485800 0.122200
vn 0.290400 0.681900 0.671400
vn -0.088400 -0.525100 -0.846400
vn 0.706100 0.218600 -0.673600
vn 0.700900 -0.633000 0.328800
vn 0.449800 0.733800 0.509200
vn -0.259100 -0.674700 -0.691100
usemtl None
s off
f 7/1/9 9/1/9 10/1/9 8/1/9
f 12/1/10 14/1/10 18/1/10 17/1/10
f 8/1/11 10/1/11 14/1/11 12/1/11
f 9/1/12 7/1/12 11/1/12 13/1/12
f 10/1/13 9/1/13 13/1/13 14/1/13
f 7/1/14 8/1/14 12/1/14 11/1/14
f 18/1/15 15/1/15 19/1/15 22/1/15
f 13/1/16 11/1/16 16/1/16 15/1/16
f 14/1/17 13/1/17 15/1/17 18/1/17
f 11/1/18 12/1/18 17/1/18 16/1/18
f 21/1/19 22/1/19 26/1/19 25/1/19
f 16/1/20 17/1/20 21/1/20 20/1/20
f 17/1/21 18/1/21 22/1/21 21/1/21
f 15/1/22 16/1/22 20/1/22 19/1/22
f 25/1/23 26/1/23 30/1/23 29/1/23
f 19/1/24 20/1/24 24/1/24 23/1/24
f 22/1/25 19/1/25 23/1/25 26/1/25
f 20/1/26 21/1/26 25/1/26 24/1/26
f 29/1/27 30/1/27 34/1/27 33/1/27
f 23/1/28 24/1/28 28/1/28 27/1/28
f 26/1/29 23/1/29 27/1/29 30/1/29
f 24/1/30 25/1/30 29/1/30 28/1/30
f 32/1/31 33/1/31 34/1/31 31/1/31
f 27/1/32 28/1/32 32/1/32 31/1/32
f 30/1/33 27/1/33 31/1/33 34/1/33
f 28/1/34 29/1/34 33/1/34 32/1/34
f 35/1/9 36/1/9 38/1/9 37/1/9
f 40/1/35 45/1/35 46/1/35 42/1/35
f 36/1/36 40/1/36 42/1/36 38/1/36
f 37/1/37 41/1/37 39/1/37 35/1/37
f 38/1/38 42/1/38 41/1/38 37/1/38
f 35/1/39 39/1/39 40/1/39 36/1/39
f 46/1/40 50/1/40 47/1/40 43/1/40
f 41/1/41 43/1/41 44/1/41 39/1/41
f 42/1/42 46/1/42 43/1/42 41/1/42
f 39/1/43 44/1/43 45/1/43 40/1/43
f 49/1/44 53/1/44 54/1/44 50/1/44
f 44/1/45 48/1/45 49/1/45 45/1/45
f 45/1/46 49/1/46 50/1/46 46/1/46
f 43/1/47 47/1/47 48/1/47 44/1/47
f 53/1/48 57/1/48 58/1/48 54/1/48
f 47/1/49 51/1/49 52/1/49 48/1/49
f 50/1/50 54/1/50 51/1/50 47/1/50
f 48/1/51 52/1/51 53/1/51 49/1/51
f 57/1/52 61/1/52 62/1/52 58/1/52
f 51/1/53 55/1/53 56/1/53 52/1/53
f 54/1/54 58/1/54 55/1/54 51/1/54
f 52/1/55 56/1/55 57/1/55 53/1/55
f 60/1/56 59/1/56 62/1/56 61/1/56
f 55/1/57 59/1/57 60/1/57 56/1/57
f 58/1/58 62/1/58 59/1/58 55/1/58
f 56/1/59 60/1/59 61/1/59 57/1/59
f 63/1/9 64/1/9 66/1/9 65/1/9
f 68/1/60 73/1/60 74/1/60 70/1/60
f 64/1/61 68/1/61 70/1/61 66/1/61
f 65/1/62 69/1/62 67/1/62 63/1/62
f 66/1/63 70/1/63 69/1/63 65/1/63
f 63/1/64 67/1/64 68/1/64 64/1/64
f 74/1/65 78/1/65 75/1/65 71/1/65
f 69/1/66 71/1/66 72/1/66 67/1/66
f 70/1/67 74/1/67 71/1/67 69/1/67
f 67/1/68 72/1/68 73/1/68 68/1/68
f 77/1/69 81/1/69 82/1/69 78/1/69
f 72/1/70 76/1/70 77/1/70 73/1/70
f 73/1/71 77/1/71 78/1/71 74/1/71
f 71/1/72 75/1/72 76/1/72 72/1/72
f 81/1/73 85/1/73 86/1/73 82/1/73
f 75/1/74 79/1/74 80/1/74 76/1/74
f 78/1/75 82/1/75 79/1/75 75/1/75
f 76/1/76 80/1/76 81/1/76 77/1/76
f 85/1/77 89/1/77 90/1/77 86/1/77
f 79/1/78 83/1/78 84/1/78 80/1/78
f 82/1/79 86/1/79 83/1/79 79/1/79
f 80/1/80 84/1/80 85/1/80 81/1/80
f 88/1/81 87/1/81 90/1/81 89/1/81
f 83/1/82 87/1/82 88/1/82 84/1/82
f 86/1/83 90/1/83 87/1/83 83/1/83
f 84/1/84 88/1/84 89/1/84 85/1/84
f 91/1/9 93/1/9 94/1/9 92/1/9
f 96/1/85 98/1/85 102/1/85 101/1/85
f 92/1/86 94/1/86 98/1/86 96/1/86
f 93/1/87 91/1/87 95/1/87 97/1/87
f 94/1/88 93/1/88 97/1/88 98/1/88
f 91/1/89 92/1/89 96/1/89 95/1/89
f 102/1/90 99/1/90 103/1/90 106/1/90
f 97/1/91 95/1/91 100/1/91 99/1/91
f 98/1/92 97/1/92 99/1/92 102/1/92
f 95/1/93 96/1/93 101/1/93 100/1/93
f 105/1/94 106/1/94 110/1/94 109/1/94
f 100/1/95 101/1/95 105/1/95 104/1/95
f 101/1/96 102/1/96 106/1/96 105/1/96
f 99/1/97 100/1/97 104/1/97 103/1/97
f 109/1/98 110/1/98 114/1/98 113/1/98
f 103/1/99 104/1/99 108/1/99 107/1/99
f 106/1/100 103/1/100 107/1/100 110/1/100
f 104/1/101 105/1/101 109/1/101 108/1/101
f 113/1/102 114/1/102 118/1/102 117/1/102
f 107/1/103 108/1/103 112/1/103 111/1/103
f 110/1/104 107/1/104 111/1/104 114/1/104
f 108/1/105 109/1/105 113/1/105 112/1/105
f 116/1/106 117/1/106 118/1/106 115/1/106
f 111/1/107 112/1/107 116/1/107 115/1/107
f 114/1/108 111/1/108 115/1/108 118/1/108
f 112/1/109 113/1/109 117/1/109 116/1/109
